<svg width="87" height="368" viewBox="0 0 87 368" fill="none" xmlns="http://www.w3.org/2000/svg">
<rect width="87" height="368" fill="#1E1E1E"/>
<path d="M37 174.628H33V195.838H37V215.569H40.5V223.461H37V360.094H51.5V367H72V360.094H86V223.461H82V215.569H86V154.404H82V147.992H86V4.94609H68V1H54V4.94609H37V147.992H40.5V154.404H37V174.628Z" fill="#636363" stroke="#393D47" stroke-width="1.5"/>
<rect x="0.15" y="181.15" width="68.7" height="12.7" rx="2.85" fill="#D9D9D9" fill-opacity="0.3" stroke="#393D47" stroke-width="0.3"/>
<path d="M8.38184 191H6.62891V190.692L4.76855 188.021H4.07031V190.312C4.07031 190.36 4.08822 190.408 4.12402 190.453C4.16309 190.499 4.21842 190.525 4.29004 190.531L4.86133 190.57V191H2.32227V190.57L2.84961 190.531C2.92122 190.525 2.97331 190.499 3.00586 190.453C3.04167 190.408 3.05957 190.36 3.05957 190.312V184.979C3.05957 184.931 3.04167 184.883 3.00586 184.838C2.97331 184.789 2.92122 184.763 2.84961 184.76L2.32227 184.721V184.291H4.86133V184.721L4.29004 184.76C4.21842 184.763 4.16309 184.789 4.12402 184.838C4.08822 184.883 4.07031 184.931 4.07031 184.979V187.602H4.43164L6.60938 184.94C6.6224 184.927 6.62891 184.91 6.62891 184.887C6.62891 184.815 6.59635 184.776 6.53125 184.77L6.01855 184.721V184.291H8.1377V184.721C8.1377 184.721 8.08398 184.727 7.97656 184.74C7.8724 184.75 7.76497 184.761 7.6543 184.774C7.54362 184.787 7.47852 184.796 7.45898 184.799L5.41797 187.24L7.65918 190.521L8.38184 190.57V191ZM10.5645 184.53C10.5645 184.7 10.5059 184.846 10.3887 184.97C10.2715 185.09 10.1283 185.15 9.95898 185.15C9.78971 185.15 9.64323 185.09 9.51953 184.97C9.39909 184.846 9.33887 184.7 9.33887 184.53C9.33887 184.358 9.39909 184.213 9.51953 184.096C9.64323 183.979 9.78971 183.92 9.95898 183.92C10.1283 183.92 10.2715 183.979 10.3887 184.096C10.5059 184.213 10.5645 184.358 10.5645 184.53ZM11.0771 191H8.72852V190.609L9.2168 190.58C9.35677 190.57 9.42676 190.497 9.42676 190.36V186.791H8.73828V186.439L9.95898 186.059H10.3545V190.36C10.3545 190.422 10.374 190.473 10.4131 190.512C10.4554 190.551 10.5059 190.574 10.5645 190.58L11.0771 190.609V191ZM16.8926 191H14.6855V190.609L15.1055 190.58C15.1641 190.574 15.2129 190.551 15.252 190.512C15.2943 190.473 15.3154 190.422 15.3154 190.36V187.758C15.3154 187.442 15.2422 187.203 15.0957 187.04C14.9492 186.874 14.7018 186.791 14.3535 186.791C14.1647 186.791 13.9759 186.819 13.7871 186.874C13.6016 186.926 13.4242 186.994 13.2549 187.079V190.36C13.2549 190.497 13.3249 190.57 13.4648 190.58L13.8848 190.609V191H11.624V190.609L12.1123 190.58C12.2523 190.57 12.3223 190.497 12.3223 190.36V186.889H11.624V186.562L12.8447 186.181H13.2549V186.679C13.5348 186.519 13.8213 186.376 14.1143 186.249C14.4105 186.122 14.6742 186.059 14.9053 186.059C15.3415 186.059 15.6735 186.195 15.9014 186.469C16.1292 186.739 16.2432 187.117 16.2432 187.602V190.36C16.2432 190.422 16.2627 190.473 16.3018 190.512C16.3441 190.551 16.3945 190.574 16.4531 190.58L16.8926 190.609V191ZM22.1758 186.85H21.1797C21.2546 186.97 21.318 187.102 21.3701 187.245C21.4222 187.388 21.4482 187.556 21.4482 187.748C21.4482 188.08 21.3571 188.365 21.1748 188.603C20.9925 188.837 20.7516 189.018 20.4521 189.145C20.1559 189.271 19.8337 189.335 19.4854 189.335C19.4528 189.335 19.4202 189.335 19.3877 189.335C19.3551 189.335 19.3226 189.333 19.29 189.33C19.2477 189.398 19.2184 189.472 19.2021 189.55C19.1891 189.628 19.1826 189.701 19.1826 189.77C19.1826 189.831 19.1859 189.883 19.1924 189.926C19.1989 189.968 19.2038 189.993 19.207 189.999L19.3486 190.014C19.583 190.036 19.8451 190.069 20.1348 190.111C20.4277 190.154 20.7093 190.222 20.9795 190.316C21.2529 190.411 21.4775 190.544 21.6533 190.717C21.8291 190.889 21.917 191.117 21.917 191.4C21.917 191.716 21.8014 192.017 21.5703 192.304C21.3392 192.593 21.0267 192.829 20.6328 193.012C20.2422 193.197 19.8044 193.29 19.3193 193.29C18.7236 193.29 18.2614 193.153 17.9326 192.88C17.6038 192.61 17.4395 192.273 17.4395 191.869C17.4395 191.579 17.5257 191.321 17.6982 191.093C17.8708 190.868 18.1377 190.723 18.499 190.658C18.4632 190.554 18.4372 190.479 18.4209 190.434C18.4046 190.388 18.3965 190.31 18.3965 190.199C18.3965 190.069 18.4355 189.926 18.5137 189.77C18.5951 189.61 18.7236 189.441 18.8994 189.262C18.5674 189.187 18.2777 189.019 18.0303 188.759C17.7829 188.495 17.6592 188.161 17.6592 187.758C17.6592 187.234 17.8431 186.82 18.2109 186.518C18.582 186.212 19.0671 186.059 19.666 186.059C19.9036 186.059 20.1234 186.094 20.3252 186.166C20.5303 186.234 20.6979 186.299 20.8281 186.361H22.1758V186.85ZM20.4961 187.689C20.4961 187.478 20.4603 187.279 20.3887 187.094C20.3171 186.908 20.2129 186.758 20.0762 186.645C19.9395 186.527 19.7702 186.469 19.5684 186.469C19.2884 186.469 19.0589 186.578 18.8799 186.796C18.7041 187.011 18.6162 187.312 18.6162 187.699C18.6162 188.035 18.696 188.323 18.8555 188.563C19.015 188.801 19.2526 188.92 19.5684 188.92C19.8678 188.92 20.0973 188.799 20.2568 188.559C20.4163 188.318 20.4961 188.028 20.4961 187.689ZM21.0576 191.669C21.0576 191.461 20.9844 191.299 20.8379 191.186C20.6947 191.072 20.5156 190.987 20.3008 190.932C20.0859 190.876 19.8695 190.837 19.6514 190.814C19.4333 190.788 19.2493 190.761 19.0996 190.731C18.8099 190.836 18.6097 190.977 18.499 191.156C18.3916 191.335 18.3379 191.506 18.3379 191.669C18.3379 191.828 18.3835 191.998 18.4746 192.177C18.569 192.359 18.7122 192.514 18.9043 192.641C19.0996 192.768 19.347 192.831 19.6465 192.831C19.9655 192.831 20.2292 192.768 20.4375 192.641C20.6458 192.514 20.8005 192.359 20.9014 192.177C21.0055 191.998 21.0576 191.828 21.0576 191.669ZM25.4229 186.078C25.4229 186.277 25.3789 186.498 25.291 186.742C25.2031 186.983 25.0632 187.214 24.8711 187.436C24.679 187.657 24.4268 187.839 24.1143 187.982C23.805 188.126 23.4258 188.197 22.9766 188.197C22.9538 188.197 22.9277 188.197 22.8984 188.197C22.8724 188.194 22.8464 188.192 22.8203 188.192L22.8691 187.87C23.2142 187.808 23.473 187.704 23.6455 187.558C23.8213 187.411 23.9385 187.252 23.9971 187.079C24.0589 186.903 24.0898 186.747 24.0898 186.61C24.0898 186.405 24.0345 186.228 23.9238 186.078C23.8164 185.925 23.7057 185.849 23.5918 185.849C23.5397 185.849 23.4665 185.87 23.3721 185.912C23.2777 185.951 23.2305 185.971 23.2305 185.971L23.084 185.712C23.084 185.712 23.1589 185.678 23.3086 185.609C23.4583 185.541 23.6423 185.445 23.8604 185.321C23.9971 185.24 24.1419 185.154 24.2949 185.062C24.4479 184.968 24.5667 184.921 24.6514 184.921C24.7295 184.921 24.8288 184.96 24.9492 185.038C25.0729 185.116 25.182 185.242 25.2764 185.414C25.374 185.583 25.4229 185.805 25.4229 186.078ZM29.5244 189.55C29.5244 190.041 29.3551 190.427 29.0166 190.707C28.6781 190.984 28.2109 191.122 27.6152 191.122C27.3092 191.122 27.026 191.09 26.7656 191.024C26.5085 190.963 26.3294 190.91 26.2285 190.868V189.54H26.7363L26.8584 190.39C26.9593 190.455 27.083 190.518 27.2295 190.58C27.3792 190.639 27.5518 190.668 27.7471 190.668C28.0335 190.668 28.2549 190.588 28.4111 190.429C28.5674 190.269 28.6455 190.09 28.6455 189.892C28.6455 189.628 28.5511 189.429 28.3623 189.296C28.1735 189.159 27.9049 189.008 27.5566 188.842L27.4248 188.778C27.0602 188.606 26.7803 188.427 26.585 188.241C26.3929 188.052 26.2969 187.808 26.2969 187.509C26.2969 187.063 26.4531 186.71 26.7656 186.449C27.0781 186.189 27.5225 186.059 28.0986 186.059C28.3916 186.059 28.652 186.086 28.8799 186.142C29.111 186.194 29.277 186.243 29.3779 186.288V187.47H28.8555L28.7773 186.771C28.7057 186.716 28.5999 186.664 28.46 186.615C28.32 186.566 28.1719 186.542 28.0156 186.542C27.7422 186.542 27.5387 186.605 27.4053 186.732C27.2718 186.856 27.2051 187.016 27.2051 187.211C27.2051 187.436 27.2848 187.615 27.4443 187.748C27.6071 187.878 27.9001 188.039 28.3232 188.231C28.6715 188.391 28.958 188.57 29.1826 188.769C29.4105 188.964 29.5244 189.224 29.5244 189.55ZM39.5049 191H34.6416V190.57L35.2227 190.531C35.2943 190.525 35.3464 190.499 35.3789 190.453C35.4147 190.408 35.4326 190.36 35.4326 190.312V184.979C35.4326 184.931 35.4147 184.883 35.3789 184.838C35.3464 184.789 35.2943 184.763 35.2227 184.76L34.6416 184.721V184.291H37.1953V184.721L36.6631 184.76C36.5915 184.763 36.5361 184.789 36.4971 184.838C36.4613 184.883 36.4434 184.931 36.4434 184.979V190.512H38.543C38.5885 190.512 38.6357 190.494 38.6846 190.458C38.7334 190.422 38.7594 190.383 38.7627 190.341L38.9238 189.14H39.5049V191ZM41.8633 184.53C41.8633 184.7 41.8047 184.846 41.6875 184.97C41.5703 185.09 41.4271 185.15 41.2578 185.15C41.0885 185.15 40.9421 185.09 40.8184 184.97C40.6979 184.846 40.6377 184.7 40.6377 184.53C40.6377 184.358 40.6979 184.213 40.8184 184.096C40.9421 183.979 41.0885 183.92 41.2578 183.92C41.4271 183.92 41.5703 183.979 41.6875 184.096C41.8047 184.213 41.8633 184.358 41.8633 184.53ZM42.376 191H40.0273V190.609L40.5156 190.58C40.6556 190.57 40.7256 190.497 40.7256 190.36V186.791H40.0371V186.439L41.2578 186.059H41.6533V190.36C41.6533 190.422 41.6729 190.473 41.7119 190.512C41.7542 190.551 41.8047 190.574 41.8633 190.58L42.376 190.609V191ZM47.9326 188.358C47.9326 188.86 47.8333 189.311 47.6348 189.711C47.4362 190.108 47.1253 190.422 46.7021 190.653C46.279 190.884 45.7321 191 45.0615 191H43.6211V184.35H42.8643V184.018L44.1533 183.632H44.5537V186.43C44.6676 186.374 44.8516 186.299 45.1055 186.205C45.3626 186.107 45.6377 186.059 45.9307 186.059C46.3701 186.059 46.738 186.164 47.0342 186.376C47.3304 186.588 47.5534 186.869 47.7031 187.221C47.8561 187.569 47.9326 187.948 47.9326 188.358ZM46.9121 188.559C46.9121 187.927 46.7786 187.452 46.5117 187.133C46.2448 186.811 45.8688 186.649 45.3838 186.649C45.2731 186.649 45.1315 186.667 44.959 186.703C44.7897 186.739 44.6546 186.775 44.5537 186.811V190.521C44.5537 190.521 44.6107 190.523 44.7246 190.526C44.8418 190.53 44.9476 190.531 45.042 190.531C45.6344 190.531 46.0934 190.385 46.4189 190.092C46.7477 189.799 46.9121 189.288 46.9121 188.559ZM52.0879 187.201H51.6973C51.6354 187.126 51.5605 187.063 51.4727 187.011C51.388 186.955 51.2839 186.928 51.1602 186.928C51.0007 186.928 50.8363 186.983 50.667 187.094C50.501 187.204 50.3317 187.356 50.1592 187.548V190.36C50.1592 190.5 50.2292 190.574 50.3691 190.58L51.0283 190.609V191H48.5283V190.619L49.0215 190.58C49.0801 190.574 49.1289 190.551 49.168 190.512C49.2103 190.473 49.2314 190.422 49.2314 190.36V186.889H48.5088V186.562L49.749 186.181H50.1592V187.069C50.2568 186.962 50.3789 186.828 50.5254 186.669C50.6719 186.509 50.8281 186.368 50.9941 186.244C51.1602 186.12 51.3213 186.059 51.4775 186.059C51.5817 186.059 51.694 186.075 51.8145 186.107C51.9349 186.14 52.026 186.174 52.0879 186.21V187.201ZM57.1172 191H55.6377L55.5059 190.409C55.5059 190.409 55.4554 190.445 55.3545 190.517C55.2568 190.588 55.1266 190.671 54.9639 190.766C54.8011 190.86 54.6204 190.943 54.4219 191.015C54.2266 191.086 54.0312 191.122 53.8359 191.122C53.4746 191.122 53.167 191.002 52.9131 190.761C52.6624 190.52 52.5371 190.189 52.5371 189.77C52.5371 189.584 52.5697 189.411 52.6348 189.252C52.7031 189.092 52.8366 188.941 53.0352 188.798C53.237 188.651 53.5348 188.51 53.9287 188.373C54.3258 188.233 54.8516 188.091 55.5059 187.948V187.519C55.5059 186.861 55.195 186.532 54.5732 186.532C54.4007 186.532 54.251 186.549 54.124 186.581C54.0003 186.614 53.9141 186.64 53.8652 186.659V187.528H53.1377C53.0465 187.528 52.9619 187.512 52.8838 187.479C52.8057 187.444 52.7666 187.364 52.7666 187.24C52.7666 186.967 52.8708 186.744 53.0791 186.571C53.2874 186.396 53.5511 186.267 53.8701 186.186C54.1924 186.101 54.5179 186.059 54.8467 186.059C55.2601 186.059 55.5807 186.124 55.8086 186.254C56.0365 186.381 56.196 186.558 56.2871 186.786C56.3783 187.011 56.4238 187.268 56.4238 187.558V190.36C56.4238 190.422 56.4434 190.473 56.4824 190.512C56.5247 190.551 56.5752 190.574 56.6338 190.58L57.1172 190.609V191ZM55.5059 190.058V188.329C55.0566 188.44 54.6986 188.552 54.4316 188.666C54.168 188.777 53.971 188.889 53.8408 189.003C53.7106 189.114 53.6243 189.228 53.582 189.345C53.543 189.459 53.5234 189.577 53.5234 189.701C53.5234 189.906 53.5885 190.097 53.7188 190.272C53.8522 190.445 54.0378 190.531 54.2754 190.531C54.4089 190.531 54.5472 190.508 54.6904 190.463C54.8337 190.414 54.9671 190.359 55.0908 190.297C55.2145 190.232 55.3138 190.176 55.3887 190.131C55.4668 190.082 55.5059 190.058 55.5059 190.058ZM61.0918 187.201H60.7012C60.6393 187.126 60.5645 187.063 60.4766 187.011C60.3919 186.955 60.2878 186.928 60.1641 186.928C60.0046 186.928 59.8402 186.983 59.6709 187.094C59.5049 187.204 59.3356 187.356 59.1631 187.548V190.36C59.1631 190.5 59.2331 190.574 59.373 190.58L60.0322 190.609V191H57.5322V190.619L58.0254 190.58C58.084 190.574 58.1328 190.551 58.1719 190.512C58.2142 190.473 58.2354 190.422 58.2354 190.36V186.889H57.5127V186.562L58.7529 186.181H59.1631V187.069C59.2607 186.962 59.3828 186.828 59.5293 186.669C59.6758 186.509 59.832 186.368 59.998 186.244C60.1641 186.12 60.3252 186.059 60.4814 186.059C60.5856 186.059 60.6979 186.075 60.8184 186.107C60.9388 186.14 61.0299 186.174 61.0918 186.21V187.201ZM66.3994 186.571L65.877 186.63L63.958 191.308C63.9157 191.415 63.849 191.568 63.7578 191.767C63.6699 191.968 63.5641 192.174 63.4404 192.382C63.32 192.593 63.1898 192.769 63.0498 192.909C62.9294 193.03 62.7959 193.122 62.6494 193.188C62.5062 193.256 62.3499 193.29 62.1807 193.29C61.943 193.29 61.7607 193.231 61.6338 193.114C61.5101 193 61.4482 192.868 61.4482 192.719C61.4482 192.497 61.5557 192.297 61.7705 192.118L62.708 192.548C62.8187 192.437 62.9294 192.287 63.04 192.099C63.1507 191.91 63.25 191.715 63.3379 191.513C63.429 191.311 63.499 191.137 63.5479 190.99L61.8486 186.63L61.2969 186.571V186.181H63.5088V186.571L63.0303 186.601C62.9229 186.61 62.8691 186.664 62.8691 186.762C62.8691 186.788 62.8724 186.807 62.8789 186.82L64.041 189.77L65.2275 186.82C65.2373 186.801 65.2422 186.78 65.2422 186.757C65.2422 186.659 65.1917 186.607 65.0908 186.601L64.6172 186.571V186.181H66.3994V186.571Z" fill="white"/>
<ellipse cx="77.5" cy="186.973" rx="6.41287" ry="6.5" transform="rotate(90 77.5 186.973)" fill="white"/>
<path d="M79.765 190H76.724V189.583L77.6205 189.547C77.6761 189.544 77.723 189.524 77.7611 189.486C77.7992 189.448 77.8182 189.402 77.8182 189.35V185.232L76.4384 185.474V185.056L78.3807 184.454H78.7367V189.35C78.7367 189.402 78.7557 189.448 78.7938 189.486C78.8319 189.524 78.8788 189.544 78.9344 189.547L79.765 189.583V190Z" fill="#393D47"/>
<circle cx="77.5" cy="124.5" r="6.5" transform="rotate(90 77.5 124.5)" fill="white"/>
<path d="M79.377 126H75.479V125.398L75.8965 125.06C76.3594 124.685 76.7739 124.327 77.1401 123.987C77.5093 123.647 77.8008 123.315 78.0146 122.99C78.2285 122.662 78.3354 122.331 78.3354 121.997C78.3354 121.745 78.2827 121.528 78.1772 121.346C78.0718 121.165 77.9341 121.025 77.7642 120.929C77.5972 120.832 77.4199 120.784 77.2324 120.784C77.0479 120.784 76.8882 120.814 76.7534 120.876C76.6187 120.935 76.5337 120.976 76.4985 120.999V121.878C76.4692 121.907 76.418 121.938 76.3447 121.97C76.2715 122.002 76.188 122.019 76.0942 122.019C75.9653 122.019 75.8496 121.979 75.7471 121.9C75.6445 121.818 75.5933 121.693 75.5933 121.526C75.5933 121.292 75.6782 121.083 75.8481 120.898C76.0181 120.71 76.2422 120.562 76.5205 120.454C76.7988 120.343 77.0991 120.287 77.4214 120.287C77.9868 120.287 78.4365 120.438 78.7705 120.74C79.1074 121.039 79.2759 121.428 79.2759 121.909C79.2759 122.272 79.1499 122.637 78.8979 123.003C78.646 123.369 78.3062 123.743 77.8784 124.124C77.4507 124.501 76.9731 124.894 76.4458 125.301H78.8013L78.9463 124.585H79.377V126Z" fill="#393D47"/>
<circle cx="77.5" cy="81.5" r="6.5" transform="rotate(90 77.5 81.5)" fill="white"/>
<path d="M79.3638 81.3696C79.3638 81.6978 79.2627 81.9893 79.0605 82.2441C78.8613 82.4961 78.5962 82.6938 78.2651 82.8374C77.937 82.981 77.5767 83.0527 77.1841 83.0527C76.8208 83.0527 76.5132 83 76.2612 82.8945C76.0122 82.7891 75.8232 82.6616 75.6943 82.5122C75.5654 82.3628 75.501 82.2222 75.501 82.0903C75.501 81.979 75.5405 81.8794 75.6196 81.7915C75.6987 81.7007 75.8188 81.6553 75.98 81.6553C76.0122 81.6553 76.0576 81.6582 76.1162 81.6641C76.1777 81.6699 76.2261 81.6846 76.2612 81.708L76.4897 82.354C76.5952 82.4155 76.7095 82.4668 76.8325 82.5078C76.9556 82.5459 77.0815 82.5649 77.2104 82.5649C77.5913 82.5649 77.8901 82.4478 78.1069 82.2134C78.3267 81.9761 78.4365 81.6948 78.4365 81.3696C78.4365 81.1206 78.375 80.9243 78.252 80.7808C78.1318 80.6372 77.981 80.5361 77.7993 80.4775C77.6206 80.416 77.4419 80.3853 77.2632 80.3853C77.1577 80.3853 77.0596 80.3896 76.9688 80.3984C76.8779 80.4072 76.8105 80.4146 76.7666 80.4204C76.7666 80.3354 76.7666 80.2358 76.7666 80.1216C76.7666 80.0073 76.7666 79.9092 76.7666 79.8271C76.7725 79.8301 76.7988 79.833 76.8457 79.8359C76.8926 79.8359 76.9351 79.8359 76.9731 79.8359C77.3159 79.8359 77.6118 79.748 77.8608 79.5723C78.1128 79.3936 78.2388 79.1357 78.2388 78.7988C78.2388 78.4795 78.1362 78.2305 77.9312 78.0518C77.729 77.8701 77.4888 77.7793 77.2104 77.7793C77.0522 77.7793 76.9072 77.8057 76.7754 77.8584C76.6436 77.9082 76.5439 77.958 76.4766 78.0078V78.7769C76.4561 78.7886 76.4121 78.8091 76.3447 78.8384C76.2803 78.8677 76.2026 78.8823 76.1118 78.8823C76.0151 78.8823 75.9126 78.8501 75.8042 78.7856C75.6958 78.7212 75.6416 78.6011 75.6416 78.4253C75.6416 78.2173 75.7236 78.0283 75.8877 77.8584C76.0518 77.6855 76.27 77.5479 76.5425 77.4453C76.8149 77.3398 77.1138 77.2871 77.439 77.2871C77.7554 77.2871 78.041 77.3442 78.2959 77.4585C78.5537 77.5728 78.7588 77.7354 78.9111 77.9463C79.0635 78.1572 79.1396 78.4062 79.1396 78.6934C79.1396 78.998 79.0327 79.272 78.8188 79.5151C78.6079 79.7583 78.3003 79.9355 77.896 80.0469C78.1245 80.0586 78.3516 80.1128 78.5771 80.2095C78.8027 80.3032 78.9902 80.4453 79.1396 80.6357C79.2891 80.8262 79.3638 81.0708 79.3638 81.3696Z" fill="#393D47"/>
<circle cx="77.5" cy="38.5" r="6.5" transform="rotate(90 77.5 38.5)" fill="white"/>
<path d="M79.3945 38.3784H78.7749V40.0527H77.9092V38.3784H75.4614V37.6621L78.0059 34.4541H78.7749V37.7104H79.3945V38.3784ZM77.9092 37.7104V35.2979L78.1025 35.3374L76.0327 37.9434L75.9097 37.7104H77.9092Z" fill="#393D47"/>
<circle cx="61.5" cy="14.5" r="6.5" transform="rotate(90 61.5 14.5)" fill="white"/>
<path d="M63.3374 14.1675C63.3374 14.5337 63.2495 14.8589 63.0737 15.1431C62.9009 15.4272 62.6445 15.6499 62.3047 15.811C61.9678 15.9722 61.5518 16.0527 61.0566 16.0527C60.7754 16.0527 60.5176 16.0029 60.2832 15.9033C60.0518 15.8008 59.8657 15.6763 59.7251 15.5298C59.5874 15.3804 59.5186 15.2354 59.5186 15.0947C59.5186 14.9482 59.5669 14.8369 59.6636 14.7607C59.7603 14.6816 59.8818 14.6421 60.0283 14.6421C60.0723 14.6421 60.1221 14.6465 60.1777 14.6553C60.2363 14.6641 60.2729 14.6714 60.2876 14.6772L60.5293 15.332C60.5967 15.3936 60.6978 15.4478 60.8325 15.4946C60.9702 15.5415 61.0845 15.5649 61.1753 15.5649C61.4624 15.5649 61.7012 15.5049 61.8916 15.3848C62.082 15.2646 62.2256 15.1123 62.3223 14.9277C62.4189 14.7402 62.4673 14.5513 62.4673 14.3608C62.4673 13.9067 62.3428 13.5713 62.0938 13.3545C61.8447 13.1348 61.5239 13.0249 61.1313 13.0249C61.0024 13.0249 60.856 13.0396 60.6919 13.0688C60.5308 13.0981 60.3726 13.1333 60.2173 13.1743C60.062 13.2153 59.9302 13.2563 59.8218 13.2974V10.4453H62.9683V11.1528H60.437V12.6514C60.5132 12.6221 60.6553 12.584 60.8633 12.5371C61.0742 12.4902 61.2896 12.4668 61.5093 12.4668C62.0718 12.4668 62.5171 12.6191 62.8452 12.9238C63.1733 13.2285 63.3374 13.6431 63.3374 14.1675Z" fill="#393D47"/>
<circle cx="45.5" cy="38.5" r="6.5" transform="rotate(90 45.5 38.5)" fill="white"/>
<path d="M47.3901 38.0181C47.3901 38.4282 47.3008 38.7856 47.1221 39.0903C46.9463 39.395 46.709 39.6323 46.4102 39.8022C46.1113 39.9692 45.7788 40.0527 45.4126 40.0527C45.0493 40.0527 44.7197 39.9707 44.4238 39.8066C44.1309 39.6426 43.8979 39.3774 43.7251 39.0112C43.5522 38.6421 43.4658 38.1528 43.4658 37.5435C43.4658 36.896 43.5933 36.3291 43.8481 35.8428C44.103 35.3535 44.4722 34.9727 44.9556 34.7002C45.4419 34.4248 46.0278 34.2871 46.7134 34.2871V34.8057H46.3794C46.0571 34.8057 45.7554 34.8862 45.4741 35.0474C45.1929 35.2056 44.9556 35.4326 44.7622 35.7285C44.5688 36.0244 44.4443 36.3774 44.3887 36.7876C44.8193 36.4741 45.2559 36.3174 45.6982 36.3174C46.041 36.3174 46.3384 36.3921 46.5903 36.5415C46.8452 36.6909 47.0415 36.8945 47.1792 37.1523C47.3198 37.4072 47.3901 37.6958 47.3901 38.0181ZM46.5156 38.1235C46.5156 37.7251 46.4219 37.416 46.2344 37.1963C46.0469 36.9766 45.7729 36.8667 45.4126 36.8667C45.2397 36.8667 45.061 36.9048 44.8765 36.981C44.6919 37.0542 44.5205 37.1523 44.3623 37.2754C44.3564 37.3604 44.3521 37.438 44.3491 37.5083C44.3491 37.5786 44.3491 37.6445 44.3491 37.7061C44.3491 38.2598 44.4341 38.7109 44.604 39.0596C44.7769 39.4082 45.0464 39.5825 45.4126 39.5825C45.6733 39.5825 45.8843 39.5181 46.0454 39.3892C46.2095 39.2573 46.3281 39.0815 46.4014 38.8618C46.4775 38.6392 46.5156 38.3931 46.5156 38.1235Z" fill="#393D47"/>
<circle cx="45.5" cy="81.5" r="6.5" transform="rotate(90 45.5 81.5)" fill="white"/>
<path d="M47.4033 77.9023L44.7271 82.7803V83.0527H43.8174L46.6079 77.9683L46.709 78.1528H44.0195L43.8877 78.8823H43.4526V77.4453H47.4033V77.9023Z" fill="#393D47"/>
<circle cx="46.5" cy="124.5" r="6.5" transform="rotate(90 46.5 124.5)" fill="white"/>
<path d="M48.3857 124.44C48.3857 124.75 48.3008 125.027 48.1309 125.271C47.9609 125.514 47.728 125.706 47.4321 125.846C47.1362 125.984 46.8008 126.053 46.4258 126.053C46.0273 126.053 45.6816 125.984 45.3887 125.846C45.0957 125.708 44.8687 125.52 44.7075 125.279C44.5493 125.039 44.4702 124.765 44.4702 124.458C44.4702 124.211 44.5229 123.998 44.6284 123.816C44.7368 123.634 44.8716 123.48 45.0327 123.354C45.1968 123.226 45.3623 123.119 45.5293 123.034C45.4121 122.978 45.2876 122.896 45.1558 122.788C45.0269 122.679 44.917 122.544 44.8262 122.383C44.7354 122.219 44.6899 122.03 44.6899 121.816C44.6899 121.348 44.8496 120.976 45.1689 120.7C45.4883 120.425 45.9072 120.287 46.4258 120.287C46.7568 120.287 47.0527 120.349 47.3135 120.472C47.5771 120.595 47.7852 120.762 47.9375 120.973C48.0898 121.184 48.166 121.421 48.166 121.685C48.166 121.913 48.1133 122.118 48.0078 122.3C47.9053 122.479 47.7837 122.632 47.6431 122.761C47.5054 122.887 47.3823 122.987 47.2739 123.06C47.4175 123.119 47.5757 123.205 47.7485 123.319C47.9214 123.431 48.0708 123.577 48.1968 123.759C48.3228 123.94 48.3857 124.167 48.3857 124.44ZM47.375 121.759C47.375 121.446 47.2842 121.198 47.1025 121.017C46.9209 120.835 46.6953 120.744 46.4258 120.744C46.1504 120.744 45.9336 120.836 45.7754 121.021C45.6172 121.203 45.5381 121.405 45.5381 121.627C45.5381 121.912 45.6479 122.152 45.8677 122.348C46.0903 122.542 46.4097 122.716 46.8257 122.871C46.9927 122.751 47.126 122.599 47.2256 122.414C47.3252 122.227 47.375 122.008 47.375 121.759ZM47.52 124.572C47.52 124.358 47.4629 124.179 47.3486 124.036C47.2373 123.892 47.0659 123.76 46.8345 123.64C46.606 123.52 46.3145 123.391 45.96 123.253C45.7549 123.365 45.5879 123.51 45.459 123.688C45.333 123.867 45.27 124.103 45.27 124.396C45.27 124.724 45.3638 125.002 45.5513 125.231C45.7417 125.457 46.0332 125.569 46.4258 125.569C46.6602 125.569 46.8579 125.521 47.019 125.424C47.1831 125.328 47.3076 125.203 47.3926 125.051C47.4775 124.898 47.52 124.739 47.52 124.572Z" fill="#393D47"/>
<ellipse cx="77.5" cy="331.016" rx="6.41287" ry="6.5" transform="rotate(90 77.5 331.016)" fill="white"/>
<path d="M76.8347 335H73.7937V334.583L74.6902 334.547C74.7458 334.544 74.7927 334.524 74.8308 334.486C74.8689 334.448 74.8879 334.402 74.8879 334.35V330.232L73.5081 330.474V330.056L75.4504 329.454H75.8064V334.35C75.8064 334.402 75.8254 334.448 75.8635 334.486C75.9016 334.524 75.9485 334.544 76.0042 334.547L76.8347 334.583V335ZM81.6951 335H78.6541V334.583L79.5505 334.547C79.6062 334.544 79.6531 334.524 79.6912 334.486C79.7292 334.448 79.7483 334.402 79.7483 334.35V330.232L78.3684 330.474V330.056L80.3108 329.454H80.6667V334.35C80.6667 334.402 80.6858 334.448 80.7239 334.486C80.762 334.524 80.8088 334.544 80.8645 334.547L81.6951 334.583V335Z" fill="#393D47"/>
<ellipse cx="77.5" cy="288.592" rx="6.41287" ry="6.5" transform="rotate(90 77.5 288.592)" fill="white"/>
<path d="M77.4111 292H74.3701V291.583L75.2666 291.547C75.3223 291.544 75.3691 291.524 75.4072 291.486C75.4453 291.448 75.4644 291.402 75.4644 291.35V287.232L74.0845 287.474V287.056L76.0269 286.454H76.3828V291.35C76.3828 291.402 76.4019 291.448 76.4399 291.486C76.478 291.524 76.5249 291.544 76.5806 291.547L77.4111 291.583V292ZM82.333 289.196C82.333 289.715 82.2598 290.191 82.1133 290.625C81.9668 291.055 81.7471 291.401 81.4541 291.662C81.1611 291.922 80.7935 292.053 80.3511 292.053C79.9116 292.053 79.5454 291.922 79.2524 291.662C78.9624 291.401 78.7441 291.055 78.5977 290.625C78.4541 290.191 78.3823 289.715 78.3823 289.196C78.3823 288.678 78.4541 288.197 78.5977 287.755C78.7441 287.312 78.9624 286.958 79.2524 286.691C79.5454 286.422 79.9116 286.287 80.3511 286.287C80.7935 286.287 81.1611 286.422 81.4541 286.691C81.7471 286.958 81.9668 287.312 82.1133 287.755C82.2598 288.197 82.333 288.678 82.333 289.196ZM81.4189 289.196C81.4189 288.892 81.4028 288.596 81.3706 288.309C81.3413 288.019 81.2871 287.759 81.208 287.531C81.1318 287.299 81.0234 287.116 80.8828 286.981C80.7451 286.844 80.5679 286.775 80.3511 286.775C80.1372 286.775 79.96 286.844 79.8193 286.981C79.6816 287.116 79.5747 287.299 79.4985 287.531C79.4224 287.759 79.3682 288.019 79.3359 288.309C79.3066 288.596 79.292 288.892 79.292 289.196C79.292 289.501 79.3066 289.795 79.3359 290.08C79.3682 290.361 79.4224 290.614 79.4985 290.84C79.5747 291.062 79.6816 291.24 79.8193 291.372C79.96 291.5 80.1372 291.565 80.3511 291.565C80.5679 291.565 80.7451 291.5 80.8828 291.372C81.0234 291.24 81.1318 291.062 81.208 290.84C81.2871 290.614 81.3413 290.361 81.3706 290.08C81.4028 289.795 81.4189 289.501 81.4189 289.196Z" fill="#393D47"/>
<ellipse cx="77.5" cy="246.169" rx="6.41287" ry="6.5" transform="rotate(90 77.5 246.169)" fill="white"/>
<path d="M76.1682 245.322C76.1682 244.926 76.2561 244.576 76.4319 244.271C76.6106 243.964 76.8494 243.724 77.1482 243.551C77.447 243.375 77.7795 243.287 78.1458 243.287C78.512 243.287 78.8416 243.372 79.1345 243.542C79.4275 243.712 79.6604 243.981 79.8333 244.351C80.0061 244.72 80.0925 245.202 80.0925 245.796C80.0925 246.444 79.9636 247.012 79.7058 247.501C79.4509 247.991 79.0803 248.372 78.594 248.644C78.1106 248.917 77.5247 249.053 76.8362 249.053V248.534H77.179C77.5012 248.534 77.803 248.455 78.0842 248.297C78.3655 248.136 78.6028 247.907 78.7961 247.611C78.9895 247.312 79.114 246.959 79.1697 246.552C78.739 246.866 78.3025 247.022 77.8601 247.022C77.5203 247.022 77.2229 246.948 76.968 246.798C76.7131 246.649 76.5154 246.447 76.3748 246.192C76.2371 245.934 76.1682 245.644 76.1682 245.322ZM77.0427 245.216C77.0427 245.615 77.1365 245.924 77.324 246.144C77.5115 246.363 77.7854 246.473 78.1458 246.473C78.3186 246.473 78.4973 246.437 78.6819 246.363C78.8665 246.287 79.0378 246.188 79.196 246.064C79.2019 245.979 79.2048 245.902 79.2048 245.832C79.2078 245.761 79.2092 245.695 79.2092 245.634C79.2092 245.279 79.1711 244.961 79.095 244.68C79.0217 244.396 78.906 244.172 78.7478 244.008C78.5925 243.841 78.3918 243.757 78.1458 243.757C77.885 243.757 77.6726 243.826 77.5085 243.964C77.3474 244.099 77.2288 244.277 77.1526 244.5C77.0793 244.723 77.0427 244.961 77.0427 245.216Z" fill="#393D47"/>
<ellipse cx="45.5" cy="246.169" rx="6.41287" ry="6.5" transform="rotate(90 45.5 246.169)" fill="white"/>
<path d="M44.9875 250H41.9465V249.583L42.843 249.547C42.8987 249.544 42.9456 249.524 42.9836 249.486C43.0217 249.448 43.0408 249.402 43.0408 249.35V245.232L41.6609 245.474V245.056L43.6033 244.454H43.9592V249.35C43.9592 249.402 43.9783 249.448 44.0164 249.486C44.0544 249.524 44.1013 249.544 44.157 249.547L44.9875 249.583V250ZM49.927 248.167C49.927 248.534 49.8391 248.859 49.6633 249.143C49.4905 249.427 49.2341 249.65 48.8943 249.811C48.5574 249.972 48.1414 250.053 47.6462 250.053C47.365 250.053 47.1072 250.003 46.8728 249.903C46.6414 249.801 46.4553 249.676 46.3147 249.53C46.177 249.38 46.1082 249.235 46.1082 249.095C46.1082 248.948 46.1565 248.837 46.2532 248.761C46.3499 248.682 46.4714 248.642 46.6179 248.642C46.6619 248.642 46.7117 248.646 46.7673 248.655C46.8259 248.664 46.8625 248.671 46.8772 248.677L47.1189 249.332C47.1863 249.394 47.2874 249.448 47.4221 249.495C47.5598 249.542 47.6741 249.565 47.7649 249.565C48.052 249.565 48.2908 249.505 48.4812 249.385C48.6716 249.265 48.8152 249.112 48.9119 248.928C49.0085 248.74 49.0569 248.551 49.0569 248.361C49.0569 247.907 48.9324 247.571 48.6833 247.354C48.4343 247.135 48.1135 247.025 47.7209 247.025C47.592 247.025 47.4456 247.04 47.2815 247.069C47.1204 247.098 46.9622 247.133 46.8069 247.174C46.6516 247.215 46.5198 247.256 46.4114 247.297V244.445H49.5579V245.153H47.0266V246.651C47.1028 246.622 47.2449 246.584 47.4529 246.537C47.6638 246.49 47.8792 246.467 48.0989 246.467C48.6614 246.467 49.1067 246.619 49.4348 246.924C49.7629 247.229 49.927 247.643 49.927 248.167Z" fill="#393D47"/>
<ellipse cx="45.5" cy="288.592" rx="6.41287" ry="6.5" transform="rotate(90 45.5 288.592)" fill="white"/>
<path d="M45.4111 292H42.3701V291.583L43.2666 291.547C43.3223 291.544 43.3691 291.524 43.4072 291.486C43.4453 291.448 43.4644 291.402 43.4644 291.35V287.232L42.0845 287.474V287.056L44.0269 286.454H44.3828V291.35C44.3828 291.402 44.4019 291.448 44.4399 291.486C44.478 291.524 44.5249 291.544 44.5806 291.547L45.4111 291.583V292ZM50.4077 290.378H49.7881V292.053H48.9224V290.378H46.4746V289.662L49.019 286.454H49.7881V289.71H50.4077V290.378ZM48.9224 289.71V287.298L49.1157 287.337L47.0459 289.943L46.9229 289.71H48.9224Z" fill="#393D47"/>
<ellipse cx="46.5" cy="331.016" rx="6.41287" ry="6.5" transform="rotate(90 46.5 331.016)" fill="white"/>
<path d="M45.8347 335H42.7937V334.583L43.6902 334.547C43.7458 334.544 43.7927 334.524 43.8308 334.486C43.8689 334.448 43.8879 334.402 43.8879 334.35V330.232L42.5081 330.474V330.056L44.4504 329.454H44.8064V334.35C44.8064 334.402 44.8254 334.448 44.8635 334.486C44.9016 334.524 44.9485 334.544 45.0042 334.547L45.8347 334.583V335ZM50.8005 333.37C50.8005 333.698 50.6995 333.989 50.4973 334.244C50.2981 334.496 50.033 334.694 49.7019 334.837C49.3738 334.981 49.0134 335.053 48.6208 335.053C48.2576 335.053 47.95 335 47.698 334.895C47.449 334.789 47.26 334.662 47.1311 334.512C47.0022 334.363 46.9377 334.222 46.9377 334.09C46.9377 333.979 46.9773 333.879 47.0564 333.792C47.1355 333.701 47.2556 333.655 47.4167 333.655C47.449 333.655 47.4944 333.658 47.553 333.664C47.6145 333.67 47.6628 333.685 47.698 333.708L47.9265 334.354C48.032 334.416 48.1462 334.467 48.2693 334.508C48.3923 334.546 48.5183 334.565 48.6472 334.565C49.0281 334.565 49.3269 334.448 49.5437 334.213C49.7634 333.976 49.8733 333.695 49.8733 333.37C49.8733 333.121 49.8118 332.924 49.6887 332.781C49.5686 332.637 49.4177 332.536 49.2361 332.478C49.0574 332.416 48.8787 332.385 48.7 332.385C48.5945 332.385 48.4963 332.39 48.4055 332.398C48.3147 332.407 48.2473 332.415 48.2034 332.42C48.2034 332.335 48.2034 332.236 48.2034 332.122C48.2034 332.007 48.2034 331.909 48.2034 331.827C48.2092 331.83 48.2356 331.833 48.2825 331.836C48.3293 331.836 48.3718 331.836 48.4099 331.836C48.7527 331.836 49.0486 331.748 49.2976 331.572C49.5496 331.394 49.6755 331.136 49.6755 330.799C49.6755 330.479 49.573 330.23 49.3679 330.052C49.1658 329.87 48.9255 329.779 48.6472 329.779C48.489 329.779 48.344 329.806 48.2122 329.858C48.0803 329.908 47.9807 329.958 47.9133 330.008V330.777C47.8928 330.789 47.8489 330.809 47.7815 330.838C47.717 330.868 47.6394 330.882 47.5486 330.882C47.4519 330.882 47.3494 330.85 47.241 330.786C47.1326 330.721 47.0784 330.601 47.0784 330.425C47.0784 330.217 47.1604 330.028 47.3245 329.858C47.4885 329.686 47.7068 329.548 47.9792 329.445C48.2517 329.34 48.5505 329.287 48.8757 329.287C49.1921 329.287 49.4778 329.344 49.7327 329.458C49.9905 329.573 50.1956 329.735 50.3479 329.946C50.5002 330.157 50.5764 330.406 50.5764 330.693C50.5764 330.998 50.4695 331.272 50.2556 331.515C50.0447 331.758 49.7371 331.936 49.3328 332.047C49.5613 332.059 49.7883 332.113 50.0139 332.209C50.2395 332.303 50.427 332.445 50.5764 332.636C50.7258 332.826 50.8005 333.071 50.8005 333.37Z" fill="#393D47"/>
<circle cx="61.5" cy="356.5" r="6.5" transform="rotate(90 61.5 356.5)" fill="white"/>
<path d="M61.2583 360H58.2173V359.583L59.1138 359.547C59.1694 359.544 59.2163 359.524 59.2544 359.486C59.2925 359.448 59.3115 359.402 59.3115 359.35V355.232L57.9316 355.474V355.056L59.874 354.454H60.23V359.35C60.23 359.402 60.249 359.448 60.2871 359.486C60.3252 359.524 60.3721 359.544 60.4277 359.547L61.2583 359.583V360ZM66.2373 360H62.3394V359.398L62.7568 359.06C63.2197 358.685 63.6343 358.327 64.0005 357.987C64.3696 357.647 64.6611 357.315 64.875 356.99C65.0889 356.662 65.1958 356.331 65.1958 355.997C65.1958 355.745 65.1431 355.528 65.0376 355.346C64.9321 355.165 64.7944 355.025 64.6245 354.929C64.4575 354.832 64.2803 354.784 64.0928 354.784C63.9082 354.784 63.7485 354.814 63.6138 354.876C63.479 354.935 63.394 354.976 63.3589 354.999V355.878C63.3296 355.907 63.2783 355.938 63.2051 355.97C63.1318 356.002 63.0483 356.019 62.9546 356.019C62.8257 356.019 62.71 355.979 62.6074 355.9C62.5049 355.818 62.4536 355.693 62.4536 355.526C62.4536 355.292 62.5386 355.083 62.7085 354.898C62.8784 354.71 63.1025 354.562 63.3809 354.454C63.6592 354.343 63.9595 354.287 64.2817 354.287C64.8472 354.287 65.2969 354.438 65.6309 354.74C65.9678 355.039 66.1362 355.428 66.1362 355.909C66.1362 356.272 66.0103 356.637 65.7583 357.003C65.5063 357.369 65.1665 357.743 64.7388 358.124C64.311 358.501 63.8335 358.894 63.3062 359.301H65.6616L65.8066 358.585H66.2373V360Z" fill="#393D47"/>
<path d="M37 148H40.5H82H86V5H68V1H54V5H37V148Z" fill="white" fill-opacity="0.01"/>
<path d="M37 223.5H40.5H82H86V360H72V367H51.5V360H37V223.5Z" fill="white" fill-opacity="0.01"/>
</svg>
